<?xml version="1.0" standalone="no"?>
<!DOCTYPE svg PUBLIC "-//W3C//DTD SVG 1.1//EN" "http://www.w3.org/Graphics/SVG/1.1/DTD/svg11.dtd" >
<svg xmlns="http://www.w3.org/2000/svg">
<metadata>Generated by IcoMoon</metadata>
<defs>
<font id="tpicon" horiz-adv-x="1024">
<font-face units-per-em="1024" ascent="960" descent="-64" />
<missing-glyph horiz-adv-x="1024" />
<glyph unicode="&#x20;" horiz-adv-x="512" d="" />
<glyph unicode="&#xe900;" glyph-name="ac" d="M459.093 957.952c-274.261-40.789-457.387-244.907-457.387-509.952 0.171-379.221 398.507-626.859 737.28-458.24 405.504 201.557 367.616 791.211-60.416 942.421-58.368 20.48-167.765 33.451-219.477 25.771zM538.283 771.413c1.536-2.389 3.584-23.893 4.437-47.957l1.707-43.691 24.235 24.064c27.136 26.795 27.477 26.965 40.107 17.067 14.165-11.093 11.605-16.213-28.501-56.149l-37.547-37.376v-62.635c0-34.475 1.195-62.123 2.731-61.611 1.536 0.683 26.112 14.165 54.613 29.867 58.709 32.597 50.688 22.016 70.827 94.208 11.435 41.813 12.971 43.691 29.696 39.083 15.531-4.267 16.043-8.363 4.779-47.275-9.557-32.939-10.923-32.427 31.403-8.875 44.032 24.576 48.811 24.235 63.317-4.096 11.435-22.528 9.216-25.941-32.085-48.981-36.693-20.48-44.373-27.136-30.891-27.136 12.629 0 61.611-17.237 61.611-21.845 0-24.064-10.411-29.525-39.253-20.651-9.387 2.901-30.379 8.875-46.592 13.312l-29.525 8.021-29.867-16.725c-16.555-9.216-30.208-16.725-30.72-16.725-7.339 0-45.056-27.136-41.643-29.867 23.040-18.944 102.741-57.856 112.811-55.125 5.973 1.707 27.307 7.68 47.275 13.312 50.517 14.165 57.515 12.459 57.515-13.824 0-6.315-45.909-23.723-62.464-23.723-12.288 0-4.437-6.827 31.744-26.965 41.301-23.040 43.52-26.624 32.085-49.152-14.507-28.331-19.285-28.672-63.317-4.096-42.325 23.552-40.96 24.064-31.403-8.875 11.264-38.912 10.752-43.008-4.779-47.275-16.725-4.608-18.261-2.731-29.696 39.083-19.968 72.021-12.117 61.44-70.656 94.037-28.331 15.872-52.736 29.355-54.443 30.037-1.707 0.512-3.072-26.283-3.072-61.611v-62.635l37.717-37.376c40.448-40.448 42.667-45.227 26.283-57.515l-9.557-6.997-24.747 24.576c-31.232 31.061-29.696 32.085-29.696-17.92 0-50.859-1.195-53.077-30.037-53.077-29.525 0.171-29.525 0-31.403 51.2l-1.707 44.715-24.747-24.064c-27.819-27.136-28.672-27.477-40.277-15.019-12.117 12.971-11.947 12.971 29.184 54.101l37.547 37.376v62.635c0 35.328-1.365 62.123-3.072 61.611-1.707-0.683-26.283-14.165-54.784-30.037l-51.541-29.013-5.291-18.773c-26.283-94.379-24.235-90.453-43.52-85.163-15.189 4.096-15.36 10.752-2.389 53.589 7.68 25.6 8.192 25.6-33.451 2.389s-45.568-23.381-58.539-2.731c-18.091 28.501-16.555 31.403 32.256 58.539 20.48 11.435 35.157 21.333 32.427 22.187s-17.408 4.949-32.597 9.045c-37.717 10.24-37.717 10.069-32.597 26.965 5.12 17.237 6.656 17.237 54.613 3.755 19.968-5.632 41.301-11.605 47.275-13.312 11.435-3.072 11.605-3.072 94.891 43.861 23.040 12.971 23.552 13.995 11.947 21.163-5.803 3.413-12.459 6.315-15.189 6.315-2.56 0-5.291 1.195-5.803 2.56-0.683 1.365-17.579 12.117-37.717 23.552l-36.523 21.163-19.797-5.12c-10.923-2.731-31.744-8.875-46.421-13.312-39.936-12.459-50.176-8.875-50.176 17.579 0 4.437 50.005 21.845 62.464 21.845 12.288 0 4.437 6.997-29.184 25.771-46.080 25.6-47.787 29.013-29.867 57.173 12.971 20.651 16.896 20.48 58.539-2.731s41.131-23.211 33.451 2.389c-12.971 42.837-12.8 49.493 2.389 53.589 19.285 5.291 17.237 9.216 43.52-84.992l5.12-18.773 51.883-29.013c28.672-16.043 53.248-29.525 54.784-30.208 1.536-0.512 2.901 27.136 2.901 61.611v62.635l-37.547 37.376c-40.107 39.936-42.667 45.056-28.501 56.149 12.629 9.899 12.971 9.728 40.107-17.067l24.235-24.064 1.707 43.691c2.048 53.419 1.365 52.224 30.72 52.224 15.019 0 24.405-1.536 26.283-4.267z" />
<glyph unicode="&#xe901;" glyph-name="airport" d="M368.64 943.616c0-3.584 39.424-102.912 87.552-220.672s86.016-215.552 83.968-217.6c-3.584-3.584-371.2-16.384-377.344-12.8-2.048 1.024-18.432 24.576-36.864 52.736l-33.792 51.2h-75.776l33.28-74.24 32.768-74.24-32.768-74.24-33.28-74.24h75.776l33.792 51.2c18.432 28.16 34.816 51.712 36.864 52.736 6.144 3.584 373.76-9.216 377.344-12.8 2.048-2.048-35.84-99.84-83.968-217.6s-87.552-217.088-87.552-220.16c0-5.12 12.8-6.656 46.080-6.656 44.032 0 46.080 0.512 56.32 14.336 5.632 7.68 70.144 106.496 142.336 218.624l132.096 204.8 71.68 2.56c62.464 2.56 76.8 5.12 120.32 19.456 45.568 15.36 71.168 30.72 71.168 41.984s-25.6 26.624-68.608 40.448c-57.344 18.944-73.216 21.504-140.8 22.528l-53.248 1.024-126.976 197.12c-70.144 108.544-134.144 206.848-142.848 219.136l-15.36 21.504h-46.080c-33.28 0-46.080-1.536-46.080-6.144z" />
<glyph unicode="&#xe902;" glyph-name="amenity" horiz-adv-x="1003" d="M309.551 946.155c-45.976-22.727-64-61.127-64-136.359v-48.327h83.592v48.849c0 71.053-12.8 66.090 173.192 66.090 184.686 0 171.624 4.963 171.624-67.135v-47.804h83.592v45.976c0 76.8-18.024 114.678-66.351 138.971-24.816 12.539-356.049 12.278-381.649-0.261zM34.482 702.433c-14.106-14.106-15.935-26.906-24.294-162.22-7.837-126.694-16.196-118.335 118.073-118.335h100.049l-2.351 13.061c-5.747 29.257 9.665 39.184 60.343 39.184 52.245 0 58.514-3.396 58.514-32.392v-19.853h306.939l2.873 21.682c3.657 28.212 8.359 30.302 61.388 30.563 50.939 0 57.208-3.657 57.208-32.392v-20.114l102.661 1.567 102.661 1.306 9.665 13.061c9.404 12.539 9.404 17.502 1.829 125.388-4.18 61.91-7.837 114.939-7.837 118.073s-5.747 12.016-12.8 19.592l-12.8 13.845h-910.106l-12.016-12.016zM43.102 169.796c-6.531-212.637-6.531-212.376 22.727-223.608 21.42-8.098 858.384-6.531 874.58 1.829 25.339 12.8 25.6 18.024 18.286 223.086-3.657 105.012-7.053 191.216-7.314 192s-40.49 1.306-89.339 1.306h-88.816v-19.853c0-29.257-6.008-32.392-60.865-32.392-53.551 0-59.298 3.396-59.298 36.31v15.935h-308.245v-19.853c0-29.257-6.008-32.392-61.388-32.392-53.551 0-58.776 3.396-56.424 37.878l0.784 14.367h-178.939l-5.747-194.612z" />
<glyph unicode="&#xe903;" glyph-name="bar" d="M160 784.64c26.368-31.744 104.96-126.208 174.336-210.176l126.464-152.32v-276.224h-209.152l-10.752-13.568c-15.104-19.2-14.080-49.92 2.048-66.048l12.544-12.544h513.024l12.544 12.544c15.872 15.872 17.152 47.104 2.816 65.024-9.728 11.776-12.032 12.032-116.48 14.592l-106.752 2.56-1.28 134.4-1.536 134.4 92.16 113.92c50.432 62.72 127.744 158.208 171.776 212.48l79.616 98.56h-789.248l47.872-57.6zM598.528 660.736c48.64-25.088 42.496-100.352-9.472-115.968-26.112-7.936-44.288-2.56-65.792 18.944-48.128 48.128 14.336 128.512 75.264 97.024z" />
<glyph unicode="&#xe904;" glyph-name="bath-tub" horiz-adv-x="1155" d="M878.484 947.874c-19.248-7.314-21.365-7.507-35.609-1.732-50.045 20.018-117.029-6.544-102.592-40.614 11.741-27.332 115.874-123.188 132.427-121.841 28.102 2.31 46.195 62.941 30.412 101.053-13.089 30.989 44.271 22.135 68.523-10.586 7.892-10.779 8.084-15.014 9.239-199.218l0.962-188.439h54.087l-2.31 383.038-9.239 20.403c-24.638 54.472-88.734 79.88-145.901 57.937zM690.815 869.534c-36.186-15.976-23.483-41.383 13.281-26.562 16.938 6.737 21.558 13.859 15.591 24.83-4.427 8.662-12.126 9.047-28.872 1.732zM613.823 823.723c-12.896-11.164-14.629-14.436-10.971-20.211 10.202-16.938 49.275 0.77 46.965 20.98-1.732 16.168-17.131 15.783-35.994-0.77zM726.617 808.517c-15.976-14.629-17.131-18.478-8.469-27.332 12.126-11.934 45.426 9.817 43.308 28.295-1.732 15.591-17.131 15.206-34.839-0.962zM559.735 778.298c-15.206-17.323-17.516-22.135-15.014-29.835 5.967-18.863 46.58 6.544 43.693 27.332-1.925 12.704-18.286 14.244-28.68 2.502zM794.755 768.866c-17.323-18.671-17.323-39.844 0-39.844 15.976 0 33.684 33.492 23.098 44.078-8.469 8.277-12.126 7.507-23.098-4.235zM670.027 753.66c-13.089-14.821-14.244-26.947-3.272-33.877 7.699-4.62 37.726 20.98 37.726 32.337 0 18.863-18.478 19.633-34.454 1.54zM508.343 709.389c-6.544-8.854-11.741-17.516-11.741-19.056 0-22.135 22.135-20.595 34.647 2.117 16.553 30.412-2.695 44.848-22.905 16.938zM754.911 699.765c-15.783-20.018-14.629-41.961 1.925-41.961 10.586 0 28.102 34.069 22.328 43.308-6.737 10.586-15.398 10.009-24.253-1.347zM635.958 703.038c-6.159-2.117-23.868-29.642-23.868-36.956 0-19.248 22.135-16.168 33.877 4.812 12.511 21.943 7.314 38.304-10.009 32.144zM721.612 627.2c-10.971-16.553-11.934-39.266-1.925-42.538 12.319-3.85 22.52 7.314 25.6 27.91 3.657 24.253-11.356 33.492-23.675 14.629zM585.143 615.459c-13.859-32.337 9.432-47.543 24.253-15.976 9.432 20.211 7.507 30.989-5.967 32.529-9.432 1.155-11.549-0.77-18.286-16.553zM697.359 554.635c-2.31-2.887-4.62-10.779-5.197-17.901-2.31-25.215 21.943-25.985 29.257-0.77 5.389 18.863-12.319 32.722-24.060 18.671zM27.91 440.301c-26.562-10.779-32.144-60.824-9.239-81.42l12.319-10.971h544.337c403.248 0 547.032 1.155 554.346 4.427 25.408 11.741 30.989 54.087 10.009 77.57l-11.164 12.319-545.877 0.77c-319.904 0.385-549.726-0.77-554.731-2.695zM57.744 294.592c0-104.325 112.602-240.409 230.015-277.943 25.023-8.084 27.717-9.817 25.023-16.938-14.436-39.459 1.54-61.209 46.388-63.134 50.815-1.925 71.026 14.629 61.402 50.815-2.887 10.586-2.695 15.014 0.385 16.361 13.859 5.197 316.247-0.577 314.899-6.159-9.624-43.886 5.005-59.669 55.627-59.669 50.43 0 68.716 23.29 50.238 63.519-1.925 4.62 3.272 7.699 23.868 14.051 118.953 37.534 231.555 172.271 231.555 277.173v9.047h-519.699c-501.991 0-519.699-0.192-519.699-7.122z" />
<glyph unicode="&#xe905;" glyph-name="bbq" d="M390.144 912.896c-9.216-9.216-7.424-28.928 4.096-43.776 13.824-17.408 12.8-37.12-2.56-58.112-43.264-59.136-32.768-153.088 17.152-153.088 26.624 0 34.56 22.528 16.128 46.080-15.872 20.224-13.056 43.52 8.704 72.96 43.52 59.392 3.84 183.296-43.52 135.936zM484.608 909.568c-11.008-12.032-10.496-20.736 1.792-36.608 15.872-20.48 13.312-47.104-7.424-74.24-37.12-48.64-22.784-140.8 21.76-140.8 26.112 0 36.096 27.136 17.664 47.36-12.544 13.824-11.52 46.336 2.048 61.184 36.864 40.192 40.704 99.072 8.96 136.96-15.104 17.664-32.256 20.224-44.8 6.144zM579.584 912.896c-9.216-9.216-7.424-28.928 4.096-43.776 16.384-20.736 12.544-45.056-11.52-71.424-38.4-42.24-17.152-143.36 29.184-138.752 22.272 2.304 28.928 22.784 13.824 44.032-14.848 20.736-14.336 47.36 1.024 65.792 28.928 34.816 36.864 75.264 21.76 111.616-14.080 33.28-41.984 48.896-58.368 32.512zM241.664 621.056c-35.84-35.84 37.376-195.328 110.336-240.384 21.504-13.312 23.040-7.68-29.952-127.232-92.672-210.432-92.416-209.408-81.408-222.464 4.096-5.376 12.8-7.936 22.528-6.912 16.384 1.536 18.688 4.608 38.912 51.456l10.496 24.32h295.936l12.032-21.248c19.2-34.56 45.056-51.968 80.384-54.528 137.984-9.984 157.44 185.856 19.968 203.008l-26.112 3.328-30.208 69.12c-17.408 39.936-27.904 69.632-24.576 70.912 66.56 22.016 154.368 188.16 129.024 243.712l-5.888 13.056h-257.792c-193.536 0-259.072-1.536-263.68-6.144zM714.496 556.8c-38.144-219.136-372.736-221.184-421.888-2.304l-4.864 21.504h430.080l-3.328-19.2zM501.76 337.92c26.88 0 56.832 1.792 67.072 3.84l18.432 4.096 28.928-66.304c33.024-75.776 32.256-72.704 18.688-84.992-5.632-5.12-12.8-16.896-16.384-26.368l-6.144-17.152h-137.216c-75.52 0-137.216 1.28-137.216 3.072s13.568 34.56 30.464 72.96c16.64 38.4 35.072 80.896 40.96 94.72 10.24 24.064 10.752 24.576 27.136 20.48 9.216-2.56 38.656-4.352 65.28-4.352zM753.92 154.368c34.304-42.496-24.32-102.144-70.656-71.936-19.2 12.8-15.104 17.408 14.592 17.408 38.656 0 50.432 18.688 31.744 51.2-16.128 28.16 2.048 30.464 24.32 3.328zM425.984 557.824c-6.144-4.608-11.264-13.312-11.264-20.224 0-23.040 16.384-28.16 89.6-28.16s89.6 5.12 89.6 28.16c0 23.040-16.384 28.16-89.6 28.16-52.224 0-69.376-1.792-78.336-7.936z" />
<glyph unicode="&#xe906;" glyph-name="bus" horiz-adv-x="1021" d="M467.774 957.789c-483.083-54.602-638.214-666.11-237.289-936.229 347.344-234.227 811.716 39.123 786.201 462.841-16.84 278.453-278.283 504.005-548.912 473.387zM606.575 779.694c82.839-15.989 124.513-36.571 137.611-67.7 2.551-6.294 10.716-56.813 18.031-112.266l13.438-100.699v-267.056h-44.226v-26.365c0-42.015-18.881-61.916-49.329-51.88-20.242 6.634-25.515 17.010-25.515 49.839v28.407h-281.515l-1.531-28.917c-3.912-75.524-77.565-70.761-77.565 4.933v23.984h-44.226v260.252l13.778 105.122c9.866 75.354 15.649 108.864 20.412 117.879 28.917 56.813 191.532 89.472 320.638 64.468zM386.296 740.401c-8.335-8.505-6.804-27.556 2.892-33.85 10.716-7.144 247.155-6.294 254.299 0.85 5.613 5.613 5.443 26.025-0.17 32.829-6.804 8.165-248.856 8.165-257.021 0.17zM334.246 674.233c-11.227-4.593-13.268-11.907-22.963-86.751-4.763-37.422-9.696-73.653-10.716-80.457-4.423-28.066-14.969-26.706 212.454-26.706 218.918 0 215.006-0.34 215.006 19.561 0 32.149-21.262 162.955-27.556 169.249-7.314 7.484-348.704 12.247-366.225 5.103zM317.916 386.764c-27.726-14.118-28.577-54.092-1.701-68.040 40.144-20.752 77.395 29.597 44.906 60.726-11.907 11.567-29.257 14.458-43.205 7.314zM677.337 387.615c-25.175-13.098-29.938-43.716-9.696-62.427 32.149-29.427 76.205 3.062 60.385 44.396-6.634 17.52-33.169 27.046-50.69 18.031z" />
<glyph unicode="&#xe907;" glyph-name="carpet" horiz-adv-x="1198" d="M678.4 950.272c-14.336-3.328-13.312-4.352 19.2-15.36 135.168-45.568 196.864-158.464 213.76-391.936 8.704-116.48 19.2-156.416 53.248-202.24 7.168-9.472 12.544-18.176 11.776-18.688-0.768-0.768-78.336-40.704-172.288-88.832l-171.264-87.296-14.080 13.568c-43.008 40.96-63.232 109.568-70.656 239.872-11.776 199.168-64.512 315.136-168.448 370.176-260.096 137.728-506.112-200.192-297.984-409.088 81.664-82.432 185.344-102.144 307.456-59.136 29.696 10.496 57.6 20.224 61.952 21.76 6.656 2.304 9.216-2.048 12.032-21.76 17.664-125.44 87.296-231.936 163.328-249.856 13.312-3.072 359.168 174.592 450.048 231.168 27.136 16.896 26.624 35.328-2.304 61.44-11.776 10.752-27.136 25.344-34.048 32.256-27.648 28.416-43.264 87.296-49.152 186.88-10.496 176.128-36.096 257.024-102.144 322.816-56.832 56.832-135.936 81.152-210.432 64.256zM269.824 598.272c9.728-4.608 23.296-16.896 29.696-26.88 54.528-83.456-40.704-172.288-108.8-101.632-61.696 64 0.768 165.632 79.104 128.512zM465.92 888.832c-99.328-28.16-129.024-37.12-126.976-38.912 0.768-0.768 19.968-8.704 42.496-17.408 150.528-58.368 213.248-183.040 232.96-462.848 4.864-71.168 16.64-124.672 30.208-138.24 9.472-9.472 241.92 113.664 235.776 124.928-13.824 25.856-25.344 92.672-30.72 177.664-12.544 201.216-51.456 286.72-156.416 342.528-71.424 38.144-125.184 40.96-227.328 12.288zM1117.184 256c-33.28-27.904-15.104-79.616 28.16-79.104 21.248 0 32.512 6.4 41.728 23.808 23.552 44.032-31.488 87.808-69.888 55.296zM989.952 188.16c-25.6-20.992-28.928-50.176-8.192-72.448 27.904-29.952 73.984-19.968 84.992 18.688 12.544 43.264-42.24 81.664-76.8 53.76zM861.696 118.016c-32.768-14.336-40.96-59.648-15.36-83.712 38.656-36.352 100.864 0.768 85.76 50.944-9.216 31.232-40.704 45.824-70.4 32.768zM701.952 35.584c-30.208-25.6-23.808-70.656 12.544-87.808 25.088-12.032 51.968-4.608 67.84 18.944 34.56 51.2-32.768 108.8-80.384 68.864z" />
<glyph unicode="&#xe908;" glyph-name="cd-player" horiz-adv-x="1045" d="M412.735 888.424c-192.61-26.471-340.114-147.331-393.23-322.177-106.928-352.479 221.518-683.189 571.733-575.565 33.263 10.275 33.263 10.449 14.454 31.869-57.295 65.132-80.98 177.284-53.638 254.781 6.444 18.112 4.876 20.376-7.14 10.971-65.306-51.374-192.435-18.286-232.316 60.604-74.014 146.112 67.744 297.97 216.816 232.316 31.695-13.932 73.143-56.25 80.98-82.721 1.219-3.831 4.528-13.235 7.488-20.898 3.309-8.707 5.399-26.122 5.399-46.498l0.174-32.392 18.286 15.151c72.098 60.082 176.588 81.676 257.567 53.116 18.982-6.792 18.808-7.314 11.842 35.875-31.173 191.39-172.582 338.547-364.321 378.95-25.078 5.224-112.327 9.578-134.095 6.618zM705.829 735.521c31.695-25.426 85.856-85.856 80.98-90.384-3.135-2.961-142.28-71.75-144.893-71.75-1.741 0-11.842 9.056-22.639 20.027l-19.679 20.027 33.785 67.918c37.616 75.581 38.139 76.626 41.796 76.626 1.393 0 15.151-10.101 30.65-22.465zM297.273 267.407l20.201-20.376-36.92-73.665-36.746-73.665-17.937 12.887c-32.566 23.336-102.574 98.22-96.653 103.445 2.438 2.090 144.196 71.75 146.112 71.75 0.871 0 10.797-9.23 21.943-20.376zM431.891 554.754c-97.524-22.465-134.095-141.932-64.958-212.463 92.822-94.912 246.422-6.444 213.333 122.776-16.196 63.216-84.463 104.49-148.376 89.687zM481.176 495.369c83.592-35.004 39.358-159.173-46.15-129.045-60.778 21.42-59.385 108.321 2.090 129.741 14.977 5.224 30.476 4.876 44.060-0.697zM785.415 428.147c-243.81-32.392-261.573-390.444-22.291-450.699 214.552-54.161 371.81 199.924 230.574 372.332-47.020 57.469-130.264 88.642-208.283 78.367zM858.384 362.493c116.332-30.302 164.571-162.656 94.912-260.18-85.856-120.337-275.853-73.317-298.667 74.014-17.937 114.939 91.951 215.423 203.755 186.166zM720.98 201.056v-97.524l13.061-1.045c7.14-0.522 22.117-0.522 33.088 0.174l20.027 1.219v82.721l9.752-5.921c5.399-3.309 29.605-20.201 53.986-37.442 54.335-38.313 60.604-42.318 63.739-39.184 1.916 1.916 3.135 131.309 1.741 182.857-0.522 16.196-1.393 15.673-66.351-30.476-32.392-22.988-59.733-41.796-60.778-41.796s-2.264 18.46-2.786 40.925l-1.045 40.925-64.435 2.090v-97.524z" />
<glyph unicode="&#xe909;" glyph-name="cloth-rack" d="M72.875 949.419c-23.893-9.216-46.592-30.037-58.197-53.589l-9.557-19.456v-856.747l9.557-19.285c10.923-22.357 30.549-41.472 53.248-51.883l15.701-7.339h856.747l15.701 7.339c22.699 10.411 42.325 29.525 53.248 51.883l9.557 19.285v856.747l-9.557 19.456c-11.776 23.893-34.475 44.544-59.221 53.76-28.672 10.752-849.237 10.581-877.227-0.171zM937.643 898.219c9.899-4.779 17.579-11.947 23.211-21.675l8.533-14.507v-827.904l-7.68-13.483c-4.267-7.68-13.824-17.237-21.675-21.845l-13.995-8.192h-828.075l-13.995 8.192c-7.851 4.608-17.408 14.165-21.675 21.845l-7.68 13.483v827.904l8.363 14.507c5.632 9.387 13.653 16.896 23.040 21.675l14.677 7.168h411.136c410.283 0 411.136 0 425.813-7.168zM130.56 752.981c-14.507-5.803-14.507-7.168-14.507-304.981 0-306.517-0.341-300.203 17.749-304.981 16.213-4.437 755.029-2.219 760.832 2.219 13.312 10.24 13.312 10.581 13.312 302.763s0 292.523-13.312 302.763c-5.461 4.267-753.835 6.315-764.075 2.219zM338.603 715.776c1.024-1.024-2.56-6.485-8.021-12.288-5.291-5.803-9.728-12.629-9.728-15.189 0-8.021 12.288-5.291 16.384 3.755 2.56 5.461 6.656 8.533 11.947 8.533 16.384 0 21.333-16.213 8.875-29.355-3.925-4.096-9.045-13.483-11.605-20.651-4.096-12.117-6.656-14.165-34.645-26.283-111.616-48.64-111.275-48.469-103.595-68.608 4.608-12.288 6.315-12.459 148.309-11.435l129.536 1.024 5.291 9.387c10.069 17.92 2.389 23.893-69.803 55.125s-70.827 29.867-52.565 54.784c13.824 18.944 9.387 46.251-7.509 46.251-1.877 0-2.56 1.536-1.365 3.413 1.365 2.219 59.051 3.413 162.133 3.413 146.603 0 178.517-1.707 157.355-8.363-8.192-2.731-16.384-21.333-11.435-26.283 2.389-2.389 5.803 0 10.923 6.997 9.216 13.141 22.528 14.336 27.819 2.56 3.243-6.997 2.219-10.24-6.656-22.528-5.632-7.851-11.264-18.432-12.459-23.723-1.877-8.704-7.68-11.947-65.024-36.181-75.435-32.085-82.432-38.059-67.925-59.051l5.291-7.509h131.925c144.896 0 144.213-0.171 144.213 20.821 0 13.995-3.584 16.213-73.045 45.909-71.851 30.549-69.973 28.331-49.493 57.173 11.947 16.896 11.264 28.843-2.389 39.595-12.629 10.069-8.192 10.581 81.067 10.581h84.821v-249.173l-244.907-0.341c-134.656 0-258.731-0.171-275.627 0s-70.997 0.341-120.32 0.341l-89.6 0.171v122.197c0 67.243 1.024 123.221 2.219 124.587 2.731 2.56 186.88 3.072 189.611 0.341zM416.256 598.357c70.144-30.549 67.755-29.184 62.805-37.035-5.291-8.533-250.368-10.752-257.365-2.219-6.827 8.363-0.512 12.288 65.024 40.448 72.021 31.061 55.125 31.232 129.536-1.195zM757.077 599.552c103.424-44.373 101.547-45.739-61.952-45.739-162.304 0.171-165.547 2.219-68.779 44.373 74.581 32.427 58.709 32.256 130.731 1.365zM322.389 416.427c-2.731-12.288 6.315-12.8 14.165-0.853 3.755 5.803 8.704 8.533 15.36 8.533 13.824 0 16.725-12.971 6.315-27.648-4.267-5.973-9.728-16.384-11.947-23.040-4.096-11.776-6.485-13.312-67.584-39.595-76.459-33.109-83.627-39.765-65.195-60.075 9.557-10.411 264.021-10.411 274.603 0.171 18.091 18.091 6.315 29.184-61.44 58.027-30.891 13.141-59.733 25.429-64 27.307-9.045 3.925-6.315 14.677 8.021 31.744 6.485 7.851 8.533 13.312 7.509 21.675-1.707 14.848-4.437 14.677 158.379 14.165l132.096-0.512-2.048-9.557c-2.56-12.971 3.413-12.459 15.701 1.195 17.92 20.139 36.693-0.853 19.285-21.675-4.779-5.461-10.24-15.701-12.288-22.699-3.925-12.459-4.949-13.141-63.829-38.229-66.219-28.16-75.947-34.133-75.947-46.251 0-22.016 0.171-22.016 144.555-22.016 146.944 0 143.872-0.512 141.483 24.405-1.195 13.141 3.584 10.24-77.824 45.739-63.659 27.819-63.317 27.477-44.032 54.443 8.192 11.435 10.069 16.896 8.363 24.405l-2.048 9.899 157.184 0.683v-248.32h-730.453v248.832l177.664-1.365-2.048-9.387zM418.133 322.048c92.672-40.107 93.355-39.595-68.267-39.595-161.451 0-160.597-0.512-68.267 39.424 74.581 32.256 62.464 32.256 136.533 0.171zM758.101 323.243c98.133-42.667 98.475-42.496-65.707-42.496h-129.707l1.195 7.509c1.024 7.339 114.005 60.416 129.365 60.587 2.901 0.171 32.085-11.435 64.853-25.6z" />
<glyph unicode="&#xe90a;" glyph-name="computer" horiz-adv-x="1082" d="M168.744 949.003c-17.668-9.375-31.91-28.665-34.254-46.513l-1.983-14.603h884.282v-544.451h-612.958v-133.408h314.411c354.794 0 334.242-1.623 354.614 28.304l8.834 12.98v664.338l-10.456 14.423c-20.372 28.124 11.718 26.321-464.586 26.141-413.927-0.18-424.924-0.361-437.904-7.211zM630.625 301.611c14.423-12.079 15.504-32.090 2.524-47.054-11.358-13.341-33.532-14.062-46.693-1.803-32.631 30.648 9.915 77.701 44.169 48.856zM45.431 818.479c-8.654-2.163-20.372-9.915-29.746-19.29l-15.685-15.685v-806.58l12.62-14.603c21.093-24.699 30.107-26.321 153.059-26.321 130.885 0 149.093 4.687 164.777 42.186 6.31 15.144 7.211 783.865 1.082 800.451-4.868 12.62-19.831 28.665-34.073 36.597-12.98 7.031-226.794 9.915-252.034 3.245zM269.701 719.324l1.082-33.352h-205.882v68.687l203.718-1.983 1.082-33.352zM269.701 584.113l-1.082-33.352-203.718-1.983v68.687h205.882l-1.082-33.352zM121.149 197.769c13.341-13.341 14.963-22.355 7.031-37.679-15.504-30.107-63.279-19.11-63.279 14.603 0 32.27 33.352 45.972 56.248 23.076zM508.394 107.808v-33.893l-13.521-2.163c-27.583-4.507-54.986-33.532-54.986-58.051v-9.194h339.831l-2.163 13.161c-4.146 25.6-28.485 49.938-54.085 54.085l-13.161 2.163v67.606h-201.915v-33.713z" />
<glyph unicode="&#xe90b;" glyph-name="cycling" d="M579.584 869.632c-79.872-39.424-42.496-160.512 45.824-148.736 40.96 5.376 65.792 35.072 65.792 77.824 0 58.88-59.392 96.512-111.616 70.912zM474.88 701.44c-57.088-21.248-121.344-93.952-150.272-169.728l-8.704-22.784 55.808-52.736c98.56-93.184 139.264-202.24 109.568-292.608-7.68-22.784-3.84-33.024 12.032-33.024 23.296 0 35.328 34.816 34.816 100.608-0.768 93.696-34.816 164.352-119.552 247.808l-44.288 43.776 14.592 26.624c32.512 59.392 70.144 98.56 109.568 113.408 12.544 4.864 14.080 3.584 26.112-20.224 34.048-67.328 88.064-94.976 184.32-94.208 87.040 0.512 117.76 8.448 117.76 30.208 0 17.664 8.192 16.64-100.352 9.984-94.464-5.888-143.616 19.2-171.008 87.296-13.824 34.816-30.208 40.704-70.4 25.6zM771.584 504.32c-5.376-7.68-6.144-16.128-3.072-32 6.144-31.744 5.376-44.8-2.304-44.8-37.888 0-122.112-75.008-141.312-125.696-77.824-208.128 179.2-376.32 335.872-219.904 119.040 119.040 50.432 325.376-116.224 349.44l-27.904 4.096-5.888 32.768c-7.424 42.24-24.064 57.6-39.168 36.096zM892.416 374.528c116.48-57.088 117.504-238.848 1.536-294.912-110.848-53.76-229.12 10.752-241.92 131.584-13.312 128.768 122.368 220.928 240.384 163.328zM153.344 425.984c-150.784-42.496-201.216-232.96-90.88-343.296 162.048-161.792 426.496 21.504 329.984 228.608-42.24 90.88-146.432 140.8-239.104 114.688zM259.328 384c118.528-35.072 152.576-194.048 60.16-278.784-118.016-107.776-306.176-1.536-273.664 154.368 20.224 97.792 115.712 153.6 213.504 124.416z" />
<glyph unicode="&#xe90c;" glyph-name="dart" d="M779.776 812.8c-35.072-40.192-42.496-56.576-42.24-91.904v-29.696l-136.448-133.376c-101.888-99.584-135.936-135.68-134.4-143.36 5.12-25.856 20.224-14.080 154.88 120.064l133.888 133.632h75.008l37.888 36.608c46.080 44.8 46.080 45.312 4.352 45.312-31.488 0-33.024 0.512-28.16 9.984 6.912 12.544-5.376 26.112-20.224 22.272-9.472-2.56-10.24-0.256-10.24 28.672 0 38.4-2.304 38.656-34.304 1.792zM378.88 762.368c-396.544-116.224-310.784-707.072 102.4-705.536 290.304 1.28 468.736 349.44 292.352 570.368l-10.24 12.8-24.576-24.576-24.576-24.32 16.384-29.696c162.56-295.424-220.672-586.24-456.704-346.624-228.864 231.936 46.080 602.112 339.456 457.216l42.496-21.248 48.128 48.64-12.8 10.24c-74.24 59.392-210.944 82.432-312.32 52.736zM419.072 630.272c-157.184-42.24-212.736-245.76-100.096-365.312 115.456-122.368 322.816-75.264 372.224 84.48 17.92 57.856 8.704 143.36-19.2 179.2l-9.216 11.776-49.152-50.176 7.936-23.808c52.992-155.648-154.624-275.968-254.976-148.224-94.976 121.088 23.296 293.632 164.096 239.872l23.296-8.96 25.6 25.344 25.6 25.6-18.432 10.752c-43.008 25.344-114.944 33.792-167.68 19.456zM443.136 487.424c-58.112-32.768-59.904-107.776-3.072-138.496 59.392-32.512 123.136 4.608 123.136 71.68 0 16.896-3.072 15.616-36.352-16.128-66.816-63.744-122.112-8.448-58.368 58.368 15.616 16.384 28.16 31.232 28.16 33.024 0 7.68-34.816 2.304-53.504-8.448z" />
<glyph unicode="&#xe90d;" glyph-name="dive" d="M472.064 879.36c-9.472-8.192-163.84-300.544-183.040-346.624-16.128-38.4 19.968-89.856 62.72-89.856 9.216 0 41.472 9.472 71.936 20.992 43.008 16.384 64 21.504 96 23.296 63.488 3.584 63.488 3.072-6.144-80.896-108.544-130.816-115.456-101.888 64.256-269.568 61.184-56.832 79.36-62.976 106.752-35.584 29.952 29.952 23.552 42.496-61.44 124.16l-75.264 71.936 79.872 97.28c102.144 124.16 103.68 127.744 76.032 174.592-28.928 49.664-150.528 74.24-250.624 50.688-16.896-3.84-31.232-6.656-32-5.888s20.48 52.992 47.36 115.712c51.456 121.088 55.552 137.728 37.376 150.784-14.592 10.24-20.992 9.984-33.792-1.024zM155.648 504.832c-49.152-29.952-57.088-87.808-17.664-130.048 63.488-68.096 174.080 10.752 132.096 93.952-21.76 43.008-75.264 59.904-114.432 36.096zM933.632 138.24c-139.008-32-324.352-118.272-324.352-151.040 0-30.464 18.432-27.904 103.424 15.104 85.76 43.264 177.664 76.288 254.464 91.136l46.592 8.96v24.32c0 29.44-1.792 29.696-80.128 11.52z" />
<glyph unicode="&#xe90e;" glyph-name="food-drink" horiz-adv-x="1254" d="M1000.803 945.371c-43.886-46.393-75.442-128.104-87.771-226.743l-2.717-21.734-255.373-2.299-8.15-11.076c-15.882-21.107-3.553-34.691 33.019-36.153l29.884-1.254 2.299-13.375c2.926-16.509 11.703-108.46 40.333-422.975 20.48-225.28 24.451-254.328 33.855-262.269 14.211-11.703 309.29-11.076 320.993 0.627 8.568 8.568 10.449 20.062 17.345 100.728 2.299 28.839 8.777 98.429 14.42 154.645 5.433 56.424 16.718 176.797 25.287 267.494 8.359 90.906 16.091 167.393 16.927 170.318 0.836 3.553 10.24 5.224 28.003 5.224 38.452 0 53.917 16.509 36.153 39.079l-8.568 10.867-273.345 2.299 1.463 22.988c3.762 57.678 36.362 143.987 69.172 183.484 31.765 38.034 0.418 76.069-33.228 40.124zM317.649 614.348c-227.579-36.78-401.45-258.926-271.673-347.115l13.793-9.404h306.782c255.373 0 308.663 1.045 318.067 5.851 65.829 34.273 50.364 147.54-31.556 231.131-81.711 83.383-230.713 136.673-335.412 119.536zM384.94 518.844c22.988-11.912 26.958-40.542 8.359-61.231-30.511-34.273-84.637 0.627-67.082 43.050 9.195 22.361 35.109 30.302 58.723 18.181zM215.040 427.52c33.019-13.793 29.048-59.559-5.851-67.291-41.169-8.986-62.067 50.364-23.615 67.291 16.091 6.896 12.957 6.896 29.466 0zM533.525 422.713c19.853-12.539 15.673-46.602-7.105-58.305-33.855-17.554-69.799 21.525-46.811 50.991 13.793 17.554 33.437 20.271 53.917 7.314zM12.539 220.212c-13.584-13.584-10.449-26.122 12.33-49.11 53.29-54.126 116.193-56.842 171.154-7.105 23.824 21.316 38.034 19.017 88.189-14.211 66.456-44.095 100.31-44.304 164.467-0.418 43.677 29.675 41.378 29.257 67.5 7.523 64.784-53.708 101.564-53.917 157.571-0.836 12.957 12.33 26.54 22.361 29.884 22.361 17.763 0 26.122 30.302 11.703 43.259-15.047 13.793-52.872 2.717-71.262-20.898-30.093-38.034-50.155-39.288-92.369-5.642-48.901 38.87-73.352 38.452-131.448-2.090-45.976-31.974-59.768-31.974-106.789 0.209-66.873 45.767-110.759 48.692-152.973 10.24-35.109-32.183-60.604-30.929-99.474 4.598-24.451 22.152-35.527 25.078-48.483 12.121zM14.629 90.854c-26.54-29.466 8.359-121.417 53.29-140.016 26.331-11.076 574.067-9.613 595.801 1.463 45.349 23.406 78.785 118.909 49.11 140.643-14.838 11.076-688.17 8.777-698.201-2.090z" />
<glyph unicode="&#xe90f;" glyph-name="free-cancellation" d="M596.992 898.816l-56.576-56.064 11.264-12.032c28.16-29.952 1.024-60.416-27.904-31.488l-13.312 13.312-253.696-253.696c-296.96-296.96-276.992-267.008-217.344-326.912l36.352-36.352 18.944 11.776c103.424 64 232.448-71.424 161.536-169.472l-9.728-13.312 34.304-33.792c61.44-60.928 57.088-62.72 197.888 78.336l107.008 107.264-11.008 11.776c-44.288 47.104-35.328 99.584 28.416 164.352 64.768 65.536 110.080 77.056 161.792 40.704l22.272-15.872 80.128 80.64-11.776 12.544c-23.296 24.832-1.792 49.408 25.344 29.184l16.384-12.032 50.944 50.688c78.336 77.568 79.36 83.2 24.576 137.472l-34.816 34.56-24.832-12.032c-105.472-51.968-216.576 63.488-159.488 165.376l11.52 20.224-36.352 35.328c-53.76 52.48-58.624 51.712-131.84-20.48zM616.192 765.184c25.856-20.48 11.264-56.064-16.384-39.424-19.456 11.776-26.624 33.28-13.824 42.752 12.8 9.216 14.336 9.216 30.208-3.328zM683.008 698.368c26.624-20.992 7.936-57.088-19.2-37.376-18.176 13.056-23.040 32.256-10.752 41.216s13.824 8.96 29.952-3.84zM749.568 631.808c15.616-12.288 16.64-33.28 2.048-42.24-7.168-4.608-12.032-2.56-24.32 9.216-17.664 16.896-19.968 30.464-6.656 38.144 12.288 7.168 13.312 7.168 28.928-5.12zM816.128 565.248c15.616-12.288 16.64-33.28 2.048-42.24-7.168-4.608-12.032-2.56-24.32 9.216-30.464 29.184-10.24 58.624 22.272 33.024zM665.088 301.312c-46.080-44.544-46.080-45.056 15.872-106.752l51.2-50.944-51.2-51.456c-62.976-62.976-63.232-65.28-18.944-109.056 43.52-43.008 45.056-42.752 108.288 19.456l51.968 50.944 50.688-50.944c61.696-61.952 62.208-61.952 106.752-15.872 42.752 44.288 43.776 38.144-18.176 101.12l-52.224 52.992 52.224 52.992c61.184 61.952 60.928 61.44 22.784 101.632-41.216 43.264-53.248 45.568-83.456 14.848-4.352-4.608-24.576-24.32-44.8-44.032l-36.864-35.584-49.92 49.152c-64.768 63.744-61.184 62.976-104.192 21.504z" />
<glyph unicode="&#xe910;" glyph-name="hair-drier" horiz-adv-x="1105" d="M261.525 957.606c-218.245-29.652-333.905-279.758-212.535-459.879 6.814-10.129 18.417-27.258 25.784-37.94 39.781-58.199 51.384-169.439 30.388-293.571-32.046-190.25-24.863-200.748 154.521-227.085 73.301-10.866 94.296 6.999 69.065 58.751-19.522 39.965-17.128 60.040 25.047 216.219 26.153 96.691 26.889 98.901 45.306 127.079 29.652 45.491 23.39 42.912 245.686 97.796 104.242 25.6 193.197 48.069 197.801 49.911l8.288 3.131v169.071c0 143.655-0.737 169.439-5.341 171.281-2.947 1.105-43.096 11.235-89.324 22.469s-89.692 22.101-96.875 24.127c-6.999 2.026-46.78 11.971-88.403 21.917-41.439 10.129-109.583 26.705-151.206 36.835-74.774 18.049-124.501 24.311-158.204 19.891zM355.085 778.037c98.901-48.437 92.271-198.17-10.682-237.951-119.712-46.227-227.085 93.007-152.127 197.433 34.993 48.806 108.478 67.039 162.809 40.518zM906.129 823.712c-17.128-17.128-6.446-28.178 33.519-34.624 23.206-3.868 39.781-9.393 61.514-20.443 52.305-26.889 103.873-25.968 103.873 2.026 0 13.629 2.578 12.34-40.15 19.522-13.26 2.026-36.835 10.314-53.963 18.786-46.412 22.469-90.797 28.731-104.794 14.734zM903.919 692.765c-4.973-7.367-5.341-11.235-2.21-18.233 4.052-9.024 6.814-9.761 46.043-14.918 9.761-1.105 33.151-9.577 52.121-18.786 57.646-27.994 105.163-27.626 105.163 0.737 0 13.997-1.105 14.55-38.308 19.706-16.944 2.394-35.361 8.656-55.252 18.601-48.253 23.942-96.506 29.836-107.557 12.892zM904.288 567.16c-5.894-5.894-5.157-21.364 1.289-27.994 1.473-1.473 15.655-4.42 31.494-6.63 20.996-2.947 38.308-8.472 63.355-20.627 56.909-27.258 104.61-27.81 104.61-1.473 0 16.391 0.921 15.839-39.597 22.285-17.496 2.947-36.098 9.209-53.41 18.233-41.071 21.548-94.481 29.652-107.741 16.207z" />
<glyph unicode="&#xe911;" glyph-name="hiking" d="M514.048 832c-66.816-33.28-50.432-133.376 23.808-145.92 27.904-4.864 63.744 13.056 77.312 38.4 36.096 67.328-33.28 141.056-101.12 107.52zM341.504 670.464c-48.896-17.92-72.704-49.408-95.744-126.464-24.32-82.688-3.584-126.72 59.904-126.72 41.472 0 49.92 13.824 88.832 142.080 16.896 55.552 32 105.216 33.536 110.080 3.584 11.52-56.064 12.288-86.528 1.024zM464.128 664.32c-1.28-2.304-9.728-31.488-18.688-65.28s-22.784-84.224-31.232-112.128c-26.112-88.832-20.992-106.496 47.872-162.304 26.112-20.736 55.808-45.568 66.56-55.040l19.2-17.408v-198.4h77.312l-1.536 108.8c-1.792 129.024-1.536 128.512-65.536 201.984l-41.216 47.104 18.944 66.56 18.944 66.816 23.808-22.528c43.776-40.704 60.672-44.288 147.2-30.464l21.76 3.328v-441.6h35.84v588.8h-38.4l1.792-30.208c2.048-36.096 0.768-37.12-54.016-46.848l-36.864-6.4-33.792 31.488c-36.864 34.56-58.88 47.36-112.128 65.536-39.168 13.312-42.24 13.824-45.824 8.192zM363.264 183.040c-23.808-66.304-44.032-122.624-45.056-124.928-0.768-2.56 16.64-4.352 39.168-4.352h40.704l34.56 95.744c38.144 106.496 38.144 99.328-0.512 132.608l-25.344 22.016-43.52-121.088z" />
<glyph unicode="&#xe912;" glyph-name="laptop" horiz-adv-x="1353" d="M157.66 947.595c0-10.375 0-621.843 0-660.863l0.226-30.449h1037.533v699.207h-518.767c-491.024 0-518.767-0.451-518.992-7.894zM1105.198 605.885v-263.894h-861.604v527.789h861.604v-263.894zM79.619 75.165c-41.276-72.402-74.432-132.398-73.53-133.3 0.677-0.677 302.915-0.902 671.464-0.226l670.337 1.128-53.004 92.476c-29.322 50.974-63.154 109.843-75.334 130.819l-22.33 38.344-1042.495 2.256-75.108-131.496zM786.495 38.626c6.541-18.044 11.954-35.186 11.954-38.344 0-4.285-27.743-5.639-124.053-5.639-68.116 0-124.053 0.677-124.053 1.804 0 0.902 5.188 15.563 11.503 32.705 6.315 16.916 12.18 33.381 13.307 36.539 1.579 4.285 25.713 5.639 100.821 5.639h98.791l11.729-32.705z" />
<glyph unicode="&#xe913;" glyph-name="media-technology" horiz-adv-x="867" d="M351.573 949.248c-130.901-27.136-229.205-120.149-267.435-253.099-13.995-48.128-21.333-119.979-14.507-140.117 9.728-28.672 4.608-46.933-40.789-148.992-36.352-81.237-35.328-101.376 5.632-106.325 26.283-3.413 37.376-20.651 21.504-33.963-14.848-12.288-3.584-33.792 23.893-45.739l20.139-8.875-9.557-9.899c-8.021-8.363-9.216-11.776-7.339-22.869 2.048-12.8 4.608-16.043 30.891-36.181 13.995-10.752 15.872-24.405 8.533-61.269-3.584-17.237-3.243-20.651 3.584-34.645 20.992-43.349 60.757-48.981 149.163-20.821 20.309 6.315 37.035 11.264 37.376 10.923 0.683-0.683 21.845-97.451 21.845-99.84 0-0.683 3.413 0 7.68 1.877 4.267 1.707 33.109 10.923 64 20.651 31.061 9.557 67.072 20.992 80.213 25.429 13.141 4.267 40.107 12.8 59.733 18.603 19.797 5.973 49.664 15.36 66.56 20.651s44.203 13.824 60.587 18.773c27.819 8.533 29.867 9.728 29.867 18.261 0 10.24-12.629 107.349-15.531 119.467-2.048 8.533 2.048 15.189 67.755 109.397 108.544 155.819 134.315 278.528 87.723 418.475-58.368 175.616-280.064 283.819-491.52 240.128zM378.027 838.656c2.731-0.853 4.267-7.68 4.267-18.261 0-16.725 0.171-16.896 16.213-24.576 8.875-4.096 20.139-10.411 25.088-13.653 8.704-5.973 8.875-5.973 21.333 4.267 15.36 12.629 14.507 12.8 36.181-13.141l17.579-21.163-12.459-11.264-12.288-11.264 7.509-23.893c4.096-13.141 7.851-25.6 8.533-27.819 0.512-2.219 8.704-4.949 18.261-6.315l17.067-2.389-1.707-22.699c-3.072-40.107-2.731-39.253-21.675-37.035-16.384 2.048-16.725 1.707-20.48-8.875-2.048-5.973-7.68-16.725-12.288-23.723-10.411-15.872-10.411-17.408 0.853-32.256l9.387-12.117-20.48-18.261c-23.893-21.504-25.771-21.845-36.864-7.509l-8.704 11.093-23.381-7.68c-12.971-4.096-25.941-7.509-28.843-7.509-3.755 0-5.973-4.949-7.509-17.408l-2.389-17.579-27.989 2.389c-34.475 3.072-33.963 2.731-31.232 20.992l2.219 15.019-16.043 6.827c-8.875 3.755-20.651 10.069-26.283 14.165l-10.069 7.168-13.653-11.093c-7.509-6.144-14.848-9.728-16.213-8.021-39.595 46.421-38.059 42.667-23.040 55.808l11.435 10.069-9.387 28.16-9.387 28.331-13.141 1.024c-18.261 1.536-19.115 3.243-16.384 34.475l2.389 27.648h35.328l7.339 16.213c3.925 8.875 9.899 20.309 13.141 25.259 5.803 8.875 5.803 9.216-4.949 22.699l-10.923 13.824 46.080 38.912 11.093-12.8 11.264-12.971 24.747 7.851c13.653 4.267 26.624 8.363 29.013 8.875 2.56 0.683 4.267 6.997 4.267 16.043 0 8.192 1.024 15.872 2.219 17.237 2.219 2.048 46.080-0.341 54.955-3.072zM692.907 818.688c0-17.749 34.304-36.523 44.373-24.235 6.485 7.851 10.923 6.144 23.381-8.875l11.435-13.824-7.509-8.021c-12.288-12.971-2.389-46.080 13.653-46.080 11.605 0 13.141-3.755 10.581-25.6-2.048-16.555-2.389-17.067-14.165-18.091-16.213-1.365-32.085-30.379-22.528-41.131 8.192-8.875 7.168-11.776-7.851-23.893-15.872-12.629-18.261-12.971-24.576-3.755-6.485 9.899-43.861-0.341-43.861-11.947-0.171-14.336-4.779-16.896-24.405-13.483-17.749 3.072-18.261 3.413-17.749 13.995 0.341 8.875-1.195 11.435-8.533 14.336-4.949 1.877-13.141 6.144-18.261 9.387-8.704 5.632-9.557 5.632-15.701 0.171-9.216-8.363-12.459-7.339-24.747 8.021l-10.923 13.824 7.68 8.192c6.656 6.997 7.168 9.728 4.096 17.749-1.877 5.291-4.437 13.824-5.632 18.944-1.707 7.68-3.925 9.387-11.947 9.387-12.971 0-13.995 2.219-11.605 23.381 2.048 17.067 2.389 17.579 13.312 17.579 15.701 0 32.427 29.867 23.893 42.837-7.509 11.605-6.997 13.312 8.533 25.6l13.824 10.923 8.192-7.68c12.8-12.117 43.861-3.072 45.397 13.141 1.195 10.752 1.195 10.752 21.333 10.752h20.309v-11.605zM628.224 551.253c0.171-17.92 33.792-35.499 44.203-23.040 6.485 7.851 10.923 6.144 23.381-8.875l11.435-13.824-15.872-16.896 6.827-19.456c6.144-17.749 7.68-19.627 17.579-20.48 11.093-1.024 11.093-1.195 9.216-17.067-2.901-23.552-3.584-24.576-15.701-24.747-15.189-0.171-31.232-30.037-21.845-40.448 8.021-8.875 6.827-12.288-7.851-23.893-15.701-12.459-16.384-12.629-23.723-3.584-9.045 11.264-44.885-0.341-44.885-14.677 0-11.776-3.925-13.312-25.6-10.069-16.384 2.56-17.067 3.072-16.384 12.8 0.683 9.045-1.195 11.093-17.92 19.968l-18.773 9.899-15.701-14.677-8.363 9.387c-18.261 20.139-18.432 20.821-9.899 29.867 6.656 6.997 7.168 9.728 4.096 17.749-1.877 5.291-4.437 13.824-5.632 18.944-1.707 7.68-3.925 9.387-12.288 9.387-12.459 0-14.165 3.755-10.752 25.6 2.56 16.725 2.901 17.067 13.483 16.043 16.213-1.536 31.573 28.16 22.528 43.691l-5.973 10.069 13.483 11.947c16.213 14.165 15.531 14.165 24.917 4.096l7.509-8.021 17.749 6.144c15.872 5.291 18.091 7.168 18.944 16.384 1.024 10.581 1.195 10.581 21.333 10.581h20.309l0.171-12.8zM302.933 747.008c-102.4-37.888-74.411-188.245 34.987-188.075 126.123 0.171 129.365 187.051 3.413 191.829-15.872 0.683-30.549-0.683-38.4-3.755zM641.877 768c-36.181-12.117-54.272-57.003-36.864-91.307 39.595-77.653 153.941-22.187 117.248 56.832-13.653 29.184-49.664 44.715-80.384 34.475zM564.395 494.080c-36.523-21.845-41.813-73.557-10.581-103.083 35.328-33.109 95.403-17.067 108.203 29.013 16.043 57.344-46.421 104.789-97.621 74.069z" />
<glyph unicode="&#xe914;" glyph-name="outdoor" horiz-adv-x="1239" d="M425.29 913.755c0-41.703 0.619-45.213 7.226-42.735 3.923 1.652 35.51 11.355 70.194 21.884 34.89 10.529 61.729 20.439 59.871 22.090-1.652 1.652-33.239 12.387-70.194 23.535l-67.097 20.645v-45.419zM922.839 888.155c-95.174-23.948-147.2-115.819-119.535-211.406 9.29-31.587 10.942-31.174 40.465 13.213l26.839 39.639 11.561-16.31c6.4-9.084 31.174-45.626 55.123-81.135 49.755-74.116 47.071-72.671 93.11-50.581 173.006 83.406 78.452 353.239-107.561 306.581zM382.968 768.826c-22.090-43.561-67.303-132.129-100.542-196.955-132.955-260.129-145.135-284.903-140.594-284.903 2.684 0 17.755 3.716 33.652 8.258 75.148 21.677 258.477 30.968 380.077 19.613l33.239-3.097 31.587 46.245 31.587 46.452-72.671 142.452c-110.245 216.981-150.503 295.226-153.6 298.323-1.445 1.652-20.645-32.826-42.735-76.387zM610.065 699.045c-8.052-14.245-21.265-39.432-29.523-55.948l-15.071-29.935 48.31-93.935c26.426-51.613 48.516-94.555 49.135-95.174 0.413-0.619 16.31 21.471 35.097 49.135l34.065 50.581-21.058 41.497c-35.923 71.019-79.484 152.981-82.994 156.49-2.065 2.065-10.116-8.258-17.961-22.71zM838.194 649.084c-16.929-25.394-75.148-111.897-129.239-192.206-54.297-80.103-97.858-146.374-97.239-146.994 0.826-0.413 35.923-6.194 77.832-12.387 42.116-6.194 125.729-21.471 185.806-33.858 204.8-42.323 245.265-44.387 268.594-14.658 16.723 21.058 21.677 11.974-140.387 251.871-58.013 85.677-110.865 164.542-117.677 175.277-15.897 24.568-11.561 27.045-47.69-27.045zM307.613 299.355c-248.361-18.994-378.632-154.219-260.335-270.452 131.097-129.239 490.116-117.884 598.71 18.787 16.929 21.265 18.581 27.252 5.368 18.787-90.839-58.426-324.955-14.245-325.161 61.523 0 82.374 156.49 91.665 448 26.632 209.135-46.452 272.723-57.6 333.832-57.6 80.103 0 128 34.684 128 92.903 0 30.348-35.097 84.645-54.71 84.645-2.065 0-6.606 1.032-10.116 2.271-4.955 2.065-5.781-0.619-3.923-14.245 6.194-45.626-85.058-64.826-188.697-39.639-242.787 59.045-506.219 88.981-670.968 76.387z" />
<glyph unicode="&#xe915;" glyph-name="parking" d="M453.12 956.928c-569.856-84.48-610.304-874.496-51.2-1003.52 395.52-91.392 734.464 319.232 574.72 696.832-84.992 200.96-317.44 337.152-523.52 306.688zM614.4 862.208c258.304-65.792 392.96-352 278.784-592.896-153.344-323.84-614.144-323.84-767.488 0-153.344 323.328 141.568 680.96 488.704 592.896zM307.2 443.136v-338.176h138.24v240.64h101.376c141.824 0 185.088 13.568 231.68 72.704 67.84 85.76 60.928 242.944-13.824 311.040-51.712 47.36-58.112 48.64-271.872 50.432l-185.6 1.536v-338.176zM616.448 663.296c49.152-11.52 67.072-38.144 67.072-100.096 0-88.064-34.816-108.032-181.76-103.936l-53.76 1.536-1.28 103.68-1.536 103.68h75.776c41.472-0.256 84.48-2.304 95.488-4.864z" />
<glyph unicode="&#xe916;" glyph-name="pay" d="M668.16 843.008c-129.792-63.488-241.92-153.088-342.528-273.92-19.2-22.784-27.648-36.864-24.832-40.96 2.56-3.072 11.776-15.36 20.736-26.88l16.128-21.248-26.624-17.92c-41.216-27.648-81.92-66.56-112.896-107.52-15.616-20.48-37.376-46.080-48.64-56.832l-20.48-19.968 21.76-36.352c12.032-20.224 34.816-58.88 50.688-86.016l28.672-49.408 30.976 12.544c39.424 15.872 106.496 30.464 169.984 37.12 108.032 10.752 203.008 103.68 226.56 221.44 6.144 30.208 205.568 146.688 334.592 195.072l30.976 11.776-66.816 115.2c-36.608 63.232-67.84 115.968-69.12 117.248-2.816 3.328-47.616-20.48-47.616-25.344 0-2.048 7.168-12.544 15.872-23.552 26.624-33.28 81.408-113.152 81.408-118.784 0-2.816-15.36-12.288-34.048-20.992-152.32-71.424-369.408-246.272-380.672-306.432-3.328-18.176-28.672-25.344-67.072-18.688-30.72 5.376-74.24 60.16-60.416 76.8 8.96 11.008 11.008 9.472 37.376-26.112 29.952-40.704 16.64-45.056 102.912 33.792 127.744 116.736 245.504 205.056 329.216 247.296 24.832 12.544 36.096 20.736 33.536 25.088-25.6 43.52-152.576 213.504-159.488 213.504-4.864 0-36.352-13.568-70.144-29.952zM797.952 748.544c31.488-44.544 57.088-82.432 56.832-84.48 0-2.048-21.248-13.824-47.36-26.624-93.952-46.080-194.816-120.576-293.888-216.576l-57.088-55.808-32.256 44.544 30.72 28.16c92.416 84.736 57.856 139.008-51.456 80.64l-40.704-21.504-15.104 17.664-14.848 17.92 70.4 69.12c111.616 109.568 316.928 251.648 334.592 231.424 1.536-2.048 28.672-39.936 60.16-84.48zM48.64 230.144c-22.528-12.8-43.008-25.6-45.568-27.904-4.864-4.864 91.648-179.2 99.072-179.2 6.656 0 86.016 46.080 92.416 53.76 6.912 8.192-84.736 173.056-97.536 175.36-4.096 0.768-25.856-9.216-48.384-22.016z" />
<glyph unicode="&#xe917;" glyph-name="restaurant" d="M459.605 956.416c-408.235-47.445-599.040-515.413-339.968-834.389 40.96-50.688 120.661-113.493 164.181-129.707 6.997-2.731 12.629 72.192 20.821 279.381l0.853 23.381-21.333 8.021c-136.363 51.371-168.277 275.797-55.637 390.656 150.357 153.259 355.157-56.32 271.701-278.187-22.016-58.197-56.32-94.891-105.643-112.981-20.821-7.509-20.821-7.68-20.309-20.651 4.267-99.84 15.36-312.661 16.725-320.683l1.707-10.581 36.523-6.315c67.755-11.776 155.648-6.827 219.989 12.288 26.795 8.021 25.088 3.755 28.16 71.509 6.315 136.533 8.704 185.685 10.581 212.48 1.877 26.453 1.365 29.867-3.755 29.867-23.552 0-80.384 42.837-94.379 70.997-14.165 28.672-6.315 197.291 17.579 376.149 1.877 14.165 3.413 26.795 3.413 28.16 0.171 1.365 7.851 2.56 17.237 2.56h17.067v-344.747h30.72v345.088l35.84-2.048 1.707-343.040h27.307v344.747h37.547v-344.747h30.72v344.747h13.653c10.752 0 13.653-1.365 13.653-5.973 0.171-3.243 2.389-25.088 5.12-48.299 16.213-136.875 19.968-185.344 20.139-264.875l0.341-81.92-10.752-15.531c-17.579-25.259-51.2-49.835-79.36-58.197l-14.848-4.437 1.877-42.837c3.755-89.6 10.411-216.917 11.264-218.112 7.851-10.24 123.563 95.232 158.379 144.555 251.563 356.352-38.4 853.675-468.821 803.669zM218.453 580.949c-43.349-85.675-14.507-200.704 59.221-236.544 15.36-7.509 14.848-2.56-2.389 22.187-41.643 59.563-59.221 148.139-41.813 210.773 8.704 31.573 0 33.621-15.019 3.584z" />
<glyph unicode="&#xe918;" glyph-name="slipper" horiz-adv-x="1027" d="M238.020 955.034c-216.273-34.59-285.624-210.965-192.128-488.369 19.35-57.707 31.85-109.934 49.83-207.882 14.213-78.598 34.761-175.518 42.809-203.259 22.432-76.372 78.256-117.469 159.422-117.298 138.017 0.171 189.731 83.050 166.272 266.617-6.849 53.426-6.678 147.093 0.171 252.404 8.391 126.202 8.391 326.892 0.171 353.777-30.652 100.345-125.003 160.278-226.547 144.011zM283.227 815.133c93.496-80.482 154.799-246.411 141.442-382.544-8.562-85.619-20.377-113.017-48.803-113.017-27.74 0-34.932 36.474-14.041 70.55 56.166 91.612 10.959 251.205-105.996 373.64-16.61 17.295-15.583 17.809-34.59-17.124-97.777-179.971-114.9-383.914-33.734-401.552 39.213-8.562 47.604-17.809 36.816-40.241-18.836-39.727-68.495-19.179-97.777 40.412-66.44 135.278-10.274 408.23 100.516 488.369l13.357 9.761 12.5-6.507c6.849-3.596 20.548-13.357 30.309-21.747zM728.615 956.233c-79.283-11.473-146.579-74.317-167.128-155.484-5.822-23.117-4.623-205.485 2.055-316.789 9.932-165.073 10.103-207.026 1.541-279.117-12.843-108.565-6.678-157.881 25.514-205.142 48.289-70.892 182.539-85.105 249.322-26.199 42.124 36.816 55.31 77.228 93.324 282.542 20.206 110.106 28.939 146.237 49.659 209.081 92.811 280.658 23.631 457.375-191.786 489.91-35.617 5.48-34.419 5.308-62.502 1.199zM803.789 832.428c109.934-78.769 165.587-362.852 96.578-492.479-25.686-48.118-65.413-68.153-88.53-45.035-20.377 20.377-12.158 42.809 17.124 47.262 72.605 10.959 85.619 120.894 32.878 278.775-17.466 52.57-64.899 154.114-73.118 156.682-5.651 1.884-55.995-59.762-78.94-96.749-71.577-115.072-87.331-214.732-45.378-285.967 24.316-41.097 19.692-75.344-9.932-75.344-54.111 0-69.865 172.607-27.74 301.549 33.22 101.201 109.421 207.026 160.449 222.095 0.514 0.171 8.048-4.623 16.61-10.788z" />
<glyph unicode="&#xe919;" glyph-name="sofa" horiz-adv-x="997" d="M224.416 766.67c-63.169-11.969-121.184-68.488-137.974-134.483-10.971-42.556-10.971-42.556 17.787-46.712 31.917-4.655 57.849-16.79 79.46-37.236 17.953-17.122 23.938-26.764 43.719-71.148 11.969-26.93 13.299-27.761 31.584-22.608 89.101 25.6 361.725 26.431 472.104 1.496 11.636-2.66 21.61-4.322 22.109-3.823s7.148 15.127 14.961 32.416c18.286 40.727 28.094 55.356 40.062 59.512 5.319 1.829 11.304 7.148 13.465 11.803 5.486 11.969 35.74 25.434 66.327 29.59l25.268 3.491-1.496 15.127c-7.314 77.465-64.997 143.46-140.8 161.247-24.935 5.984-516.156 6.982-546.577 1.33zM68.655 536.436c-80.623-22.275-87.771-134.483-10.473-166.732 9.974-4.156 11.636-6.483 11.636-15.626 0-24.104 16.125-134.816 20.779-143.958 11.138-21.112 34.909-35.408 72.145-43.221 38.4-7.979 659.283-5.652 683.553 2.66 46.712 15.792 58.847 33.247 66.161 94.088 2.66 23.605 6.816 56.187 8.81 72.312l3.99 29.257 15.626 7.979c81.953 41.558 52.031 165.735-39.896 165.735-50.036 0-67.491-18.286-108.052-113.538-14.296-33.579-16.79-37.569-22.94-35.74-163.74 46.878-339.948 50.369-505.683 9.974-25.434-6.151-47.377-10.14-48.706-8.81-1.164 1.33-12.966 26.265-26.099 55.522-36.405 81.288-67.99 104.727-120.852 90.099zM110.213 107.886c1.662-52.364 2.992-53.527 56.519-54.857 53.86-1.164 57.683 1.829 57.683 43.719v27.096l-41.558 1.829c-39.896 1.662-44.218 2.66-70.982 15.792-1.496 0.831-2.327-14.296-1.662-33.579zM866.078 134.649c-11.138-6.151-19.948-7.481-55.688-8.478l-42.39-1.33v-28.094c0-41.558 3.491-44.384 56.021-44.384h39.73l8.644 10.306c7.481 8.644 14.462 80.457 7.813 79.294-0.499 0-6.816-3.325-14.13-7.314z" />
<glyph unicode="&#xe91a;" glyph-name="spa" d="M581.12 829.184c-106.496-55.296-72.704-214.272 45.568-214.016 118.016 0.256 153.856 157.952 48.128 212.224-23.552 12.032-71.936 13.056-93.696 1.792zM463.104 625.408c-54.272-24.576-120.064-167.936-120.064-261.632v-18.176h141.824l3.072 31.232c4.096 47.616 9.472 48.64 46.336 8.96l31.488-34.304 37.12-1.792c55.040-2.816 52.736 7.424-18.688 83.2l-55.808 59.392 14.592 22.016c44.032 65.28-11.52 142.080-79.872 111.104zM770.56 433.152c-106.752-49.408-71.424-212.224 46.080-212.224 46.080 0 81.664 21.504 101.12 60.672 46.080 93.44-52.736 195.328-147.2 151.552zM98.56 320c-51.968-31.744-47.616-102.656 7.424-126.208 13.312-5.376 63.232-6.912 247.808-6.912h231.168l77.312-44.8c128-73.984 140.8-75.776 258.56-36.608 90.368 30.208 101.632 40.448 85.76 78.592-12.544 29.696-28.416 30.208-112.64 4.096-85.76-26.624-89.856-26.368-156.416 11.52l-48.384 27.648 1.536 25.6c1.536 28.928-7.168 47.872-29.44 64.512-21.504 16.128-536.832 18.432-562.688 2.56zM13.568 177.408c-17.92-19.712-6.4-44.032 23.808-49.408 8.96-1.536 147.712-2.304 308.224-1.536l291.84 1.536-31.488 19.2-31.232 19.2h-232.448c-220.16 0.256-233.216 0.768-254.464 10.24-28.672 13.056-62.72 13.568-74.24 0.768z" />
<glyph unicode="&#xe91b;" glyph-name="supper-market" d="M467.627 957.952c-184.832-22.528-330.581-121.173-410.965-278.187-173.227-338.773 73.899-741.547 455.339-741.547 409.941 0 651.093 454.144 422.912 796.672-98.645 147.968-298.837 243.541-467.285 223.061zM320.853 644.267c10.411-3.243 25.771-9.387 34.133-13.824 15.36-8.192 16.043-8.192 151.893-9.728 184.32-2.048 236.373-6.997 248.832-23.723 11.264-15.019 9.216-163.499-3.243-219.819-1.536-7.509-0.853-7.68 25.429-7.68 31.061 0 41.301-7.339 41.301-29.355 0-22.869-10.581-29.184-56.661-33.963-22.357-2.389-62.123-6.827-88.405-10.069-221.696-27.136-301.056 23.211-318.805 201.387-8.192 82.773-20.992 92.16-126.123 92.16h-72.704l-8.704 9.899c-18.944 22.016-2.731 48.64 31.061 51.029 45.227 3.072 122.88-0.341 141.995-6.315zM496.811 284.501c64.171-29.013 42.325-133.461-27.989-133.461-21.675 0-33.963 4.267-46.933 16.384-57.173 53.419 4.096 149.333 74.923 117.077zM708.437 284.501c64-29.013 41.984-133.461-27.989-133.461-55.467 0-85.845 51.2-60.416 102.059 16.896 34.133 53.76 47.104 88.405 31.403zM414.379 542.72c1.195-9.899 3.584-36.352 5.461-58.88 9.387-111.616 52.053-136.533 213.163-124.757 30.037 2.048 54.784 4.267 55.125 4.608 2.731 2.901 11.605 114.517 11.605 146.261v39.765l-12.8 2.219c-29.013 4.608-116.907 8.533-193.195 8.704h-81.579l2.219-17.92zM476.331 541.184c4.267-4.267 5.291-9.387 3.755-21.333-1.024-8.533-2.901-33.109-3.925-54.784-2.56-49.152-3.584-53.589-11.776-56.32-20.651-6.485-24.405 14.848-17.749 101.717 2.731 35.84 13.483 46.933 29.696 30.72zM535.552 543.915c5.803-3.755 5.803-4.949 2.219-94.208-2.731-74.24-4.096-80.213-17.579-80.213-17.749 0-19.115 8.704-14.336 92.16 4.779 85.163 8.533 95.573 29.696 82.261zM604.16 541.867c6.656-8.021 0.171-164.693-6.997-169.131-9.387-5.973-20.309-3.584-24.405 5.291-4.608 10.411 2.56 157.867 8.192 164.693 4.949 5.803 18.091 5.291 23.211-0.853zM669.696 539.819c6.656-3.584 6.827-5.461 4.437-57.685-3.243-69.803-4.608-76.459-15.872-77.824-21.504-2.56-22.016 0.171-14.336 101.035 2.731 35.328 8.704 43.52 25.771 34.475zM454.827 238.933c-10.581-13.141-6.827-37.717 6.485-41.984 17.579-5.632 34.475 25.259 21.504 39.595-6.827 7.509-22.869 8.875-27.989 2.389zM663.552 234.667c-11.264-17.408 1.877-43.008 19.285-37.547 7.509 2.389 16.896 18.261 16.896 28.331 0 17.237-26.453 23.893-36.181 9.216z" />
<glyph unicode="&#xe91c;" glyph-name="swim" d="M412.16 758.784c-30.976-12.288-240.896-122.368-257.536-134.912-26.112-19.968-31.744-36.352-16.896-48.384 17.664-14.336 22.272-13.312 142.080 31.488 125.184 46.848 128 47.104 143.616 15.104 19.2-38.912 39.168-87.040 36.864-88.832-1.024-0.768-53.248-32-115.712-69.376-119.808-71.424-125.696-77.312-89.344-87.296 36.864-10.24 80.384-3.584 217.856 33.792 47.616 12.8 105.216 26.112 128 29.44 57.6 8.192 58.624 3.84-39.68 159.232-108.288 171.776-111.104 174.848-149.248 159.744zM751.36 699.136c-120.064-38.656-96-210.176 29.44-210.176 136.704 0 145.664 200.192 9.472 212.48-13.568 1.28-31.232 0.256-38.912-2.304zM17.152 372.736c79.872-154.624 294.912-200.192 554.752-117.248 115.968 36.864 231.168 43.264 385.536 21.504l48.384-6.912-17.664 15.104c-93.44 79.104-238.080 102.144-396.8 62.72-289.792-71.424-434.944-64-567.552 29.696l-14.592 10.24 7.936-15.104z" />
<glyph unicode="&#xe91d;" glyph-name="taxi" d="M453.973 956.416c-425.131-52.053-604.331-566.784-302.251-868.693 321.536-321.707 870.229-94.549 870.229 360.277 0 304.64-268.629 545.109-567.979 508.416zM580.779 759.808c4.949-4.437 6.315-10.752 6.315-27.307v-21.675h45.227c74.581-0.171 78.336-3.413 117.077-101.035 27.307-69.291 27.989-70.315 41.131-76.288 38.229-17.579 42.325-31.061 42.325-141.653v-90.624h-47.787v-29.867c-0.171-47.957-15.019-69.12-48.299-69.12-30.208 0-44.373 19.797-46.592 65.024l-1.536 33.963h-330.24v-31.573c0-46.933-14.336-67.413-47.104-67.413-31.744 0-45.056 19.456-45.056 65.707v33.28h-51.541l1.024 93.355 1.024 93.184 10.24 16.725c7.68 12.117 15.019 18.944 27.648 25.259l17.408 8.704 25.259 64.512c41.131 105.301 44.032 107.861 120.149 107.861h46.763v22.016c0 32.256 0.683 32.597 60.587 32.597 41.472 0 50.859-0.853 55.979-5.632zM372.907 655.36c-3.925-4.267-16.213-31.915-27.477-61.44l-20.48-53.76h199.339c109.568 0 199.339 0.512 199.339 1.195 0 8.192-43.008 111.275-48.299 115.712-6.485 5.461-18.944 5.973-151.211 5.973h-144.043l-7.168-7.68zM291.157 482.304c-13.824-8.363-19.285-18.773-19.285-36.352 0-39.083 45.227-56.149 72.021-27.136 33.109 35.84-11.093 88.917-52.736 63.488zM718.165 485.547c-3.925-1.536-10.411-6.997-14.507-11.947-32.939-41.984 24.576-94.208 62.123-56.661 32.427 32.256-4.949 86.016-47.616 68.608z" />
<glyph unicode="&#xe91e;" glyph-name="tennis" d="M235.52 657.92l-20.736-30.72h-86.784v-130.56l-64.256-96.512c-36.096-54.016-63.232-99.584-61.696-103.68 4.096-10.752 1015.808-10.752 1019.904 0 1.536 4.096-22.528 45.056-55.296 93.44l-57.856 86.272-5.12 148.48-47.36 1.536-47.36 1.28-20.736 30.72-20.48 30.464h-511.488l-20.736-30.72zM763.648 643.84l10.496-16.64h-524.544l7.424 11.52c4.096 6.4 9.216 14.336 11.264 17.92 2.816 5.12 55.040 6.144 244.224 5.12l240.64-1.28 10.496-16.64zM178.688 572.16c-9.216-13.312-17.408-25.344-18.176-26.368-1.024-1.28-1.792 9.728-1.792 24.32v26.368h36.352l-16.384-24.32zM825.6 551.68l29.184-44.8-171.264-1.28c-94.464-0.768-248.576-0.768-343.040 0l-171.264 1.28 29.184 44.8 29.44 44.544h568.32l29.44-44.544zM875.52 562.432c0-18.944-0.768-33.28-1.792-32-1.024 1.024-11.52 16.384-23.296 34.048l-21.248 32h46.336v-34.048zM928 397.824c27.392-41.472 49.92-77.312 49.92-79.36s-209.664-3.584-465.92-3.584c-256.256 0-465.92 1.536-465.92 3.584s22.528 37.888 49.92 79.36l49.92 75.52h732.16l49.92-75.52z" />
<glyph unicode="&#xe91f;" glyph-name="toilet-paper" horiz-adv-x="1200" d="M142 948.2c-74.2-35.8-137.2-220.6-138-405.2v-19h23.8c24.8 0 36.2-6.2 36.2-19.4 0-12.2-9-16.6-33-16.6-15 0-24-1.8-25.2-5-1-2.8-1.4-121.4-0.8-263.6l1-258.6 29.8 21.6c37.4 27 34 27.6 85.8-10.4 52.8-38.8 46-38.8 98.6 0 52.8 38.8 46 38.8 100 0 55.6-40 40.4-41.8 119.2 14 29.6 20.8 24 22.2 80-18.6 46-33.6 40.6-33.8 90.4 2.6 49.4 35.8 45 35.4 82.2 7.4 60.4-45.6 52.4-45 105.6-7l42.4 30.2v250.8c0.2 345.4 4.8 416.6 33.6 520.8 23 83.8 56.6 146.8 91.6 172.2l16 11.6h-411.6c-397.8-0.2-412.2-0.4-427.6-7.8zM201.8 517.8c20.2-20.4 4.8-29.8-48.6-29.8-51 0-65 8.2-47.2 28 9.6 10.8 85.4 12 95.8 1.8zM345.8 517.8c7.2-7.4 7.6-11.6 2-22-10.4-19.8-103.8-9.2-103.8 11.6 0 12.6 13 16.6 54 16.6 32.4 0 42.8-1.4 47.8-6.2zM487.6 520.4c3-2 5.4-8.4 5.4-14.4s-2.4-12.4-5.4-14.4c-8.8-5.4-89.2-4.4-94.8 1.2-7 7-5.8 22.2 2.2 26.8 8.6 5 84.8 5.6 92.6 0.8zM631.2 519.2c6.2-6.2 6.2-20.2 0-26.4-3.2-3.2-19.6-4.8-47.2-4.8-44.6 0-52 2.6-52 18s7.4 18 52 18c27.6 0 44-1.6 47.2-4.8zM775.2 519.2c6.2-6.2 6.2-20.2 0-26.4-3.2-3.2-19.6-4.8-47.2-4.8-44.6 0-52 2.6-52 18s7.4 18 52 18c27.6 0 44-1.6 47.2-4.8zM1005 931.6c-160.4-79.4-179.6-688.2-26.4-838.2 63.6-62.2 136.2-14.8 178.6 116.6 102.2 316.8 0.8 797.4-152.2 721.6zM1049.4 663.6c64-29.2 55.8-323.6-9-323.6-72.4 0-74 303.6-1.6 327.8 0.4 0 5.2-1.8 10.6-4.2zM877.2 130l0.8-80 49.6-1.2 49.4-1-28 30c-28 29.8-29.6 32.8-66.4 118.2-5.6 13-6 8.4-5.4-66z" />
<glyph unicode="&#xe920;" glyph-name="wifi" d="M445.44 838.912c-171.264-21.76-320.768-91.904-414.464-194.56l-26.624-29.184 77.056-77.056 42.496 40.704c212.736 203.776 558.336 203.776 771.072 0l42.496-40.704 77.056 77.056-26.624 29.184c-119.808 131.328-361.216 217.856-542.464 194.56zM443.392 606.208c-101.632-14.848-227.584-79.104-269.056-137.216l-9.984-14.080 75.52-75.008 34.816 32c128.256 117.504 341.248 117.504 469.504 0l34.816-32 37.632 37.376c44.544 44.288 44.8 42.496-8.96 86.784-100.864 82.944-235.776 120.832-364.288 102.144zM458.24 389.632c-43.776-8.192-92.928-32.256-123.648-60.672l-22.784-20.992 78.848-79.36 13.568 14.336c26.624 28.416 54.272 38.656 105.216 38.656s78.592-10.24 105.216-38.656l13.568-14.336 79.104 79.616-24.576 21.76c-59.648 52.48-143.36 74.752-224.512 59.648zM477.952 166.912c-50.176-30.72-42.24-102.144 13.312-118.784 75.52-22.784 116.48 84.48 46.080 120.832-19.712 10.24-39.936 9.728-59.392-2.048z" />
</font>
</defs>
</svg>
